<svg xmlns="http://www.w3.org/2000/svg" width="72" height="72" viewBox="0 0 72 72"><g transform="translate(-71 1003) rotate(-90)"><path d="M47.23,57.234,37.153,44.011l-3.477,3.613v9.609h-3.75V28.8h3.75V42.859L46.312,28.8h4.531L39.652,41.355,51.723,57.234Zm-29.053,0a14.09,14.09,0,0,1-6.877-1.7,11.2,11.2,0,0,1-4.544-4.765A15.628,15.628,0,0,1,5.164,43.54V41.678a15.579,15.579,0,0,1,1.612-7.127,11.378,11.378,0,0,1,4.514-4.784,13.241,13.241,0,0,1,6.727-1.681h8.228V57.234ZM11.3,34.024q-2.333,2.755-2.332,7.724v1.7q0,5.108,2.472,7.874a8.8,8.8,0,0,0,6.916,2.765H22.4V31.228H17.917A8.3,8.3,0,0,0,11.3,34.024Z" transform="translate(1009.234 78.836) rotate(90)" fill="#fc5656" stroke="rgba(0,0,0,0)" stroke-width="1"/><g transform="translate(931 71)" fill="none"><path d="M36,0A36,36,0,1,1,0,36,36,36,0,0,1,36,0Z" stroke="none"/><path d="M 36 3 C 31.54370498657227 3 27.22230529785156 3.872093200683594 23.15583419799805 5.592071533203125 C 19.22657775878906 7.254013061523438 15.69710540771484 9.633846282958984 12.66548156738281 12.66548156738281 C 9.633846282958984 15.69710540771484 7.254013061523438 19.22657775878906 5.592071533203125 23.15583419799805 C 3.872093200683594 27.22230529785156 3 31.54370498657227 3 36 C 3 40.45629501342773 3.872093200683594 44.77769470214844 5.592071533203125 48.84416198730469 C 7.254013061523438 52.77342224121094 9.633846282958984 56.30289459228516 12.66548156738281 59.33451843261719 C 15.69710540771484 62.36615371704102 19.22657775878906 64.74598693847656 23.15583419799805 66.40792846679688 C 27.22230529785156 68.12790679931641 31.54370498657227 69 36 69 C 40.45629501342773 69 44.77769470214844 68.12790679931641 48.84416198730469 66.40792846679688 C 52.77342224121094 64.74598693847656 56.30289459228516 62.36615371704102 59.33451843261719 59.33451843261719 C 62.36615371704102 56.30289459228516 64.74598693847656 52.77342224121094 66.40792846679688 48.84416198730469 C 68.12790679931641 44.77769470214844 69 40.45629501342773 69 36 C 69 31.54370498657227 68.12790679931641 27.22230529785156 66.40792846679688 23.15583419799805 C 64.74598693847656 19.22657775878906 62.36615371704102 15.69710540771484 59.33451843261719 12.66548156738281 C 56.30289459228516 9.633846282958984 52.77342224121094 7.254013061523438 48.84416198730469 5.592071533203125 C 44.77769470214844 3.872093200683594 40.45629501342773 3 36 3 M 36 0 C 55.88224792480469 0 72 16.11775207519531 72 36 C 72 55.88224792480469 55.88224792480469 72 36 72 C 16.11775207519531 72 0 55.88224792480469 0 36 C 0 16.11775207519531 16.11775207519531 0 36 0 Z" stroke="none" fill="#fc5656"/></g></g></svg>